# xmcd
#
# Track frame offsets:
#	150
#	16682
#	34337
#	51262
#	66317
#	83410
#	97882
#	116172
#	134347
#	148384
#	167367
#	180729
#	198177
#	216422
#	232749
#
# Disc length: 3397 seconds
#
# Revision: 1
# Processed by: cddbd v1.5.2PL0 Copyright (c) Steve Scherf et al.
# Submitted via: audiograbber 1.83.01
#
DISCID=cb0d430f
DTITLE=SOUND CHOICE - SC8617
DYEAR=1900
DGENRE=KARAOKE
TTITLE0=Mark Chestnutt - Fallin' Never Felt So Good
TTITLE1=Darryl Worley - When You Need My Love
TTITLE2=Alabama - We Made Love
TTITLE3=Doug Stone  - Surprise
TTITLE4=Mongomery Gentry - Self Made Man
TTITLE5=Ricochet - Did I Love You Enough
TTITLE6=Steve Holy - Blue Moon
TTITLE7=Kathy Mattea - Trouble With Angels
TTITLE8=Alecia Elliott - You Wanna That
TTITLE9=Trisha Yearwood - I'm Still Alive
TTITLE10=Danni Leigh - Honey I Do
TTITLE11=Tammy Cochran - If You Can
TTITLE12=Wilkinsons - Shame On Me
TTITLE13=Martina Mcbride - There You Are
TTITLE14=Dixie Chicks - Cold Day In July
EXTD=
EXTT0=
EXTT1=
EXTT2=
EXTT3=
EXTT4=
EXTT5=
EXTT6=
EXTT7=
EXTT8=
EXTT9=
EXTT10=
EXTT11=
EXTT12=
EXTT13=
EXTT14=
PLAYORDER=
